<svg width="213" height="60" viewBox="0 0 213 60" fill="none" xmlns="http://www.w3.org/2000/svg">
<path d="M9.22168 22.748C16.2477 16.3691 23.0658 11.6312 29.6758 8.53418C36.2858 5.43717 41.3936 3.88867 44.999 3.88867C45.9697 3.88867 46.8711 4.30469 47.7031 5.13672C48.5352 5.92253 49.1823 6.84701 49.6445 7.91016C50.153 8.97331 50.4072 9.75911 50.4072 10.2676C50.4072 11.0996 50.0837 11.7236 49.4365 12.1396C48.7894 12.5094 47.6569 12.9717 46.0391 13.5264C46.3626 14.266 46.7786 15.2135 47.2871 16.3691C47.7956 17.5247 48.1885 18.4723 48.4658 19.2119C48.7432 19.9053 48.8818 20.5293 48.8818 21.084C48.8818 22.1934 47.7493 24.2734 45.4844 27.3242C43.2656 30.3288 41.694 32.5475 40.7695 33.9805C39.8913 35.4134 39.4521 37.1699 39.4521 39.25C39.4521 42.6706 41.0238 44.3809 44.167 44.3809C47.4027 44.3809 52.4642 41.3532 59.3516 35.2979V39.5273C47.6569 52.5163 39.2904 59.0107 34.252 59.0107C32.4492 59.0107 31.1549 58.4098 30.3691 57.208C29.6296 56.0524 29.2598 54.319 29.2598 52.0078C29.2598 48.3561 30.5771 43.0635 33.2119 36.1299C26.4632 43.6182 21.4479 48.957 18.166 52.1465C14.8841 55.2897 12.18 56.8613 10.0537 56.8613C9.03678 56.8613 7.76562 55.9831 6.24023 54.2266C4.71484 52.4701 3.35124 50.2051 2.14941 47.4316C0.993815 44.612 0.416016 41.6999 0.416016 38.6953C0.416016 36.5228 0.624023 34.7201 1.04004 33.2871C1.45605 31.8079 2.26497 30.3057 3.4668 28.7803C4.66862 27.2549 6.58691 25.2441 9.22168 22.748ZM42.4336 15.1211C30.4154 20.6217 21.8408 25.2904 16.71 29.127C11.6253 32.9635 9.08301 36.9157 9.08301 40.9834C9.08301 42.4626 9.33724 43.6875 9.8457 44.6582C10.3542 45.5827 11.0475 46.0449 11.9258 46.0449C12.4342 46.0449 13.3356 45.7214 14.6299 45.0742C19.4834 42.2083 23.9209 38.4873 27.9424 33.9111C31.9639 29.2887 36.7943 23.0254 42.4336 15.1211ZM105.529 22.6094C97.3939 31.6693 93.3262 37.9788 93.3262 41.5381C93.3262 43.5257 94.1351 44.5195 95.7529 44.5195C97.0934 44.5195 98.8268 43.8262 100.953 42.4395C103.126 41.0065 106.5 38.4873 111.076 34.8818V39.666C104.512 46.1374 99.474 50.806 95.9609 53.6719C92.4479 56.5378 89.582 57.9707 87.3633 57.9707C83.5729 57.9707 81.6777 55.4746 81.6777 50.4824C81.6777 49.0033 81.9089 47.5472 82.3711 46.1143C82.8333 44.6813 83.4574 43.2021 84.2432 41.6768C85.0752 40.1051 86.3232 37.8864 87.9873 35.0205C89.6514 32.1084 91.5697 28.8265 93.7422 25.1748C91.1074 26.5153 87.8024 29.1732 83.8271 33.1484C81.2386 35.6445 79.043 38.0251 77.2402 40.29C75.4375 42.5088 73.4961 45.0049 71.416 47.7783C69.3822 50.5055 67.8799 52.3545 66.9092 53.3252C65.9847 54.2497 65.0371 54.7119 64.0664 54.7119C62.5872 54.7119 61.2236 53.1634 59.9756 50.0664C58.7275 46.9694 58.1035 43.3639 58.1035 39.25C58.1035 36.7077 58.3809 34.7201 58.9355 33.2871C59.5365 31.8542 60.6921 29.8203 62.4023 27.1855C65.5918 22.2858 68.3421 18.7035 70.6533 16.4385C72.9645 14.1273 75.1833 12.9717 77.3096 12.9717C78.7887 12.9717 79.9674 13.2259 80.8457 13.7344C81.7702 14.2428 82.2324 15.0286 82.2324 16.0918C82.2324 16.554 82.0938 17.0394 81.8164 17.5479C81.5391 18.0563 81.2155 18.5186 80.8457 18.9346C80.5221 19.3506 79.8057 20.1595 78.6963 21.3613C71.3929 29.4505 67.7412 34.6969 67.7412 37.1006C67.7412 38.4411 68.1803 39.1113 69.0586 39.1113C69.6133 39.1113 70.6764 38.2331 72.248 36.4766C73.8659 34.6738 75.9229 32.3395 78.4189 29.4736C80.9613 26.5615 83.9427 23.5339 87.3633 20.3906C90.8301 17.2474 94.7591 14.2197 99.1504 11.3076C101.6 9.59733 103.634 8.74219 105.252 8.74219C105.992 8.74219 106.708 9.75911 107.401 11.793C108.141 13.8268 108.511 15.8838 108.511 17.9639C108.511 18.9808 107.517 20.5293 105.529 22.6094ZM118.772 22.748C125.799 16.3691 132.617 11.6312 139.227 8.53418C145.837 5.43717 150.944 3.88867 154.55 3.88867C155.521 3.88867 156.422 4.30469 157.254 5.13672C158.086 5.92253 158.733 6.84701 159.195 7.91016C159.704 8.97331 159.958 9.75911 159.958 10.2676C159.958 11.0996 159.634 11.7236 158.987 12.1396C158.34 12.5094 157.208 12.9717 155.59 13.5264C155.913 14.266 156.329 15.2135 156.838 16.3691C157.346 17.5247 157.739 18.4723 158.017 19.2119C158.294 19.9053 158.433 20.5293 158.433 21.084C158.433 22.1934 157.3 24.2734 155.035 27.3242C152.816 30.3288 151.245 32.5475 150.32 33.9805C149.442 35.4134 149.003 37.1699 149.003 39.25C149.003 42.6706 150.575 44.3809 153.718 44.3809C156.953 44.3809 162.015 41.3532 168.902 35.2979V39.5273C157.208 52.5163 148.841 59.0107 143.803 59.0107C142 59.0107 140.706 58.4098 139.92 57.208C139.18 56.0524 138.811 54.319 138.811 52.0078C138.811 48.3561 140.128 43.0635 142.763 36.1299C136.014 43.6182 130.999 48.957 127.717 52.1465C124.435 55.2897 121.731 56.8613 119.604 56.8613C118.588 56.8613 117.316 55.9831 115.791 54.2266C114.266 52.4701 112.902 50.2051 111.7 47.4316C110.545 44.612 109.967 41.6999 109.967 38.6953C109.967 36.5228 110.175 34.7201 110.591 33.2871C111.007 31.8079 111.816 30.3057 113.018 28.7803C114.219 27.2549 116.138 25.2441 118.772 22.748ZM151.984 15.1211C139.966 20.6217 131.392 25.2904 126.261 29.127C121.176 32.9635 118.634 36.9157 118.634 40.9834C118.634 42.4626 118.888 43.6875 119.396 44.6582C119.905 45.5827 120.598 46.0449 121.477 46.0449C121.985 46.0449 122.886 45.7214 124.181 45.0742C129.034 42.2083 133.472 38.4873 137.493 33.9111C141.515 29.2887 146.345 23.0254 151.984 15.1211ZM168.07 37.1006V35.4365C179.996 22.8636 188.201 14.0579 192.685 9.01953C193.701 3.33398 196.151 0.491211 200.034 0.491211C201.005 0.491211 202.045 0.768555 203.154 1.32324L203.57 2.64062C203.385 3.19531 203.293 3.98112 203.293 4.99805C203.293 5.8763 203.617 7.51725 204.264 9.9209C204.957 12.2783 205.489 14.266 205.858 15.8838C206.228 17.5016 206.413 19.3275 206.413 21.3613C206.413 24.4121 205.72 27.3473 204.333 30.167C202.946 32.9404 200.936 35.6214 198.301 38.21C195.666 40.7523 192.269 43.3639 188.108 46.0449C189.772 46.3223 191.09 46.4609 192.061 46.4609C193.956 46.4609 195.99 45.9987 198.162 45.0742C200.381 44.1035 202.623 42.8324 204.888 41.2607C207.199 39.6429 209.88 37.5628 212.931 35.0205V39.666C207.014 45.444 201.721 49.8353 197.053 52.8398C192.384 55.7982 188.363 57.2773 184.988 57.2773C180.643 57.2773 176.622 55.4284 172.924 51.7305C170.751 49.5117 169.388 47.3854 168.833 45.3516C168.325 43.3177 168.07 40.5674 168.07 37.1006ZM193.933 26.4922L192.685 16.3691C189.819 19.6048 183.694 25.8219 174.311 35.0205C177.084 35.6214 178.979 36.4303 179.996 37.4473C181.013 38.4642 182.446 40.4287 184.295 43.3408C187.438 42.0465 189.842 40.29 191.506 38.0713C193.216 35.8063 194.071 32.7324 194.071 28.8496C194.071 28.3874 194.048 27.9714 194.002 27.6016C194.002 27.2318 193.979 26.862 193.933 26.4922Z" fill="url(#paint0_linear_1401_311)"/>
<defs>
<linearGradient id="paint0_linear_1401_311" x1="-6.94572e-08" y1="18.8987" x2="205.996" y2="27.1635" gradientUnits="userSpaceOnUse">
<stop stop-color="#5377F7"/>
<stop offset="0.554432" stop-color="#EA4A4A" stop-opacity="0.492433"/>
<stop offset="1" stop-color="#000C7B" stop-opacity="0.52"/>
</linearGradient>
</defs>
</svg>
