<svg width="162" height="158" viewBox="0 0 162 158" fill="none" xmlns="http://www.w3.org/2000/svg">
<path fill-rule="evenodd" clip-rule="evenodd" d="M81.4783 0.579712C37.0156 0.579712 0.960938 36.6264 0.960938 81.0957C0.960938 116.67 24.0316 146.852 56.0236 157.499C60.0476 158.244 61.5249 155.752 61.5249 153.625C61.5249 151.705 61.4503 145.362 61.4156 138.634C39.0156 143.505 34.2889 129.134 34.2889 129.134C30.6263 119.828 25.349 117.353 25.349 117.353C18.0436 112.356 25.8996 112.458 25.8996 112.458C33.9849 113.025 38.2423 120.756 38.2423 120.756C45.4236 133.065 57.0783 129.506 61.6729 127.449C62.3956 122.246 64.4823 118.692 66.7849 116.682C48.9009 114.646 30.1009 107.742 30.1009 76.8904C30.1009 68.0997 33.2463 60.917 38.3969 55.2784C37.5609 53.249 34.805 45.061 39.177 33.9704C39.177 33.9704 45.9383 31.8064 61.3249 42.2237C67.7476 40.4397 74.6356 39.545 81.4783 39.5144C88.3209 39.545 95.2143 40.4397 101.649 42.2237C117.017 31.8064 123.769 33.9704 123.769 33.9704C128.152 45.061 125.394 53.249 124.558 55.2784C129.721 60.917 132.845 68.0997 132.845 76.8904C132.845 107.816 114.009 114.625 96.0796 116.618C98.9676 119.117 101.541 124.017 101.541 131.529C101.541 142.301 101.448 150.972 101.448 153.625C101.448 155.768 102.897 158.278 106.978 157.488C138.953 146.829 161.994 116.658 161.994 81.0957C161.994 36.6264 125.945 0.579712 81.4783 0.579712Z" fill="white"/>
<path d="M31.4571 116.184C31.2798 116.585 30.6505 116.704 30.0772 116.429C29.4932 116.167 29.1651 115.621 29.3545 115.22C29.5278 114.808 30.1585 114.695 30.7412 114.968C31.3265 115.232 31.6598 115.783 31.4571 116.184Z" fill="white"/>
<path d="M34.7185 119.82C34.3345 120.176 33.5838 120.011 33.0745 119.448C32.5478 118.887 32.4491 118.136 32.8385 117.775C33.2345 117.419 33.9625 117.586 34.4905 118.147C35.0171 118.715 35.1198 119.46 34.7185 119.82Z" fill="white"/>
<path d="M37.8939 124.46C37.4006 124.803 36.5939 124.481 36.0952 123.765C35.6019 123.049 35.6019 122.191 36.1059 121.847C36.6059 121.503 37.4006 121.812 37.9059 122.523C38.3979 123.249 38.3979 124.109 37.8939 124.46Z" fill="white"/>
<path d="M42.243 128.937C41.8017 129.424 40.8617 129.293 40.1737 128.629C39.4697 127.98 39.2737 127.059 39.7163 126.572C40.163 126.084 41.1083 126.221 41.8017 126.88C42.5003 127.528 42.7137 128.456 42.243 128.937Z" fill="white"/>
<path d="M48.243 131.539C48.0484 132.17 47.143 132.457 46.231 132.189C45.3204 131.913 44.7244 131.174 44.9084 130.537C45.0977 129.902 46.007 129.603 46.9257 129.89C47.835 130.165 48.4324 130.898 48.243 131.539Z" fill="white"/>
<path d="M54.8311 132.024C54.8538 132.688 54.0804 133.239 53.1231 133.249C52.1604 133.272 51.3818 132.735 51.3711 132.081C51.3711 131.411 52.1271 130.865 53.0897 130.849C54.0471 130.831 54.8311 131.364 54.8311 132.024Z" fill="white"/>
<path d="M60.9642 130.978C61.0788 131.626 60.4135 132.292 59.4628 132.468C58.5282 132.64 57.6629 132.24 57.5442 131.597C57.4282 130.933 58.1055 130.268 59.0389 130.096C59.9909 129.93 60.8428 130.32 60.9642 130.978Z" fill="white"/>
</svg>
