<svg width="162" height="158" viewBox="0 0 162 158" fill="none" xmlns="http://www.w3.org/2000/svg">
<path fill-rule="evenodd" clip-rule="evenodd" d="M81.4783 0.579713C37.0156 0.579713 0.960938 36.6264 0.960938 81.0957C0.960938 116.67 24.0316 146.852 56.0236 157.499C60.0476 158.244 61.5249 155.752 61.5249 153.625C61.5249 151.705 61.4503 145.362 61.4156 138.634C39.0156 143.505 34.2889 129.134 34.2889 129.134C30.6263 119.828 25.349 117.353 25.349 117.353C18.0436 112.356 25.8996 112.458 25.8996 112.458C33.9849 113.025 38.2423 120.756 38.2423 120.756C45.4236 133.065 57.0783 129.506 61.6729 127.449C62.3956 122.246 64.4823 118.692 66.7849 116.682C48.9009 114.646 30.1009 107.742 30.1009 76.8904C30.1009 68.0997 33.2463 60.917 38.3969 55.2784C37.5609 53.249 34.805 45.061 39.177 33.9704C39.177 33.9704 45.9383 31.8064 61.3249 42.2237C67.7476 40.4397 74.6356 39.545 81.4783 39.5144C88.3209 39.545 95.2143 40.4397 101.649 42.2237C117.017 31.8064 123.769 33.9704 123.769 33.9704C128.152 45.061 125.394 53.249 124.558 55.2784C129.721 60.917 132.845 68.0997 132.845 76.8904C132.845 107.816 114.009 114.625 96.0796 116.618C98.9676 119.117 101.541 124.017 101.541 131.529C101.541 142.301 101.448 150.972 101.448 153.625C101.448 155.768 102.897 158.278 106.978 157.488C138.953 146.829 161.994 116.658 161.994 81.0957C161.994 36.6264 125.945 0.579713 81.4783 0.579713" fill="white"/>
</svg>
